<svg xmlns="http://www.w3.org/2000/svg" width="1000" height="1000" viewBox="0 0 1000 1000" fill="none">
    <g clip-path="url(#clip0_376_1162)">
        <path d="M0 500C0 223.858 223.858 0 500 0C776.142 0 1000 223.858 1000 500C1000 776.142 776.142 1000 500 1000C223.858 1000 0 776.142 0 500Z" fill="#001108"/>
        <path fill-rule="evenodd" clip-rule="evenodd" d="M0 1000.05L50.2098 962.941C99.6703 925.83 200.09 851.608 299.76 684.607C399.43 517.606 485.761 358.807 585.432 321.696C685.102 284.585 799.61 369.161 849.071 461.939L1000 701.455V-1.95136L849.071 -1.95137C799.61 -1.95138 699.191 -1.9514 599.52 -1.95142C499.85 -1.95144 399.431 -1.95146 299.76 -1.95148C200.09 -1.9515 99.6704 -1.95152 50.21 -1.95153L0.000157235 -1.95154L0 1000.05Z" fill="#92FFCB"/>
    </g>
    <defs>
        <clipPath id="clip0_376_1162">
            <path d="M0 500C0 223.858 223.858 0 500 0C776.142 0 1000 223.858 1000 500C1000 776.142 776.142 1000 500 1000C223.858 1000 0 776.142 0 500Z" fill="white"/>
        </clipPath>
    </defs>
</svg>