<svg width="1000" height="1000" viewBox="0 0 1000 1000" fill="none" xmlns="http://www.w3.org/2000/svg">
<g clip-path="url(#clip0_613_967)">
<rect width="1000" height="1000" fill="#92FFCB"/>
<path fill-rule="evenodd" clip-rule="evenodd" d="M1000.36 161.348L950.127 192.422C900.649 223.497 800.194 285.645 700.489 425.48C600.783 565.314 514.421 700.771 414.716 731.845C315.01 762.919 200.461 692.101 150.983 614.415C101.505 536.729 0.000337201 413.862 0.000337201 413.862L0.000285928 1000.35L150.983 1000.35C200.461 1000.35 300.916 1000.35 400.622 1000.35C500.328 1000.35 600.783 1000.35 700.488 1000.35C800.194 1000.35 900.649 1000.35 950.127 1000.35L1000.35 1000.35L1000.36 161.348Z" fill="#000A05"/>
</g>
<defs>
<clipPath id="clip0_613_967">
<rect width="1000" height="1000" fill="white"/>
</clipPath>
</defs>
</svg>
