<svg width="32" height="32" viewBox="0 0 32 32" fill="currentColor" xmlns="http://www.w3.org/2000/svg">
<path fill-rule="evenodd" clip-rule="evenodd" d="M16.2569 2.48926C8.55663 2.48926 2.3125 8.73201 2.3125 16.4337C2.3125 22.5944 6.308 27.8214 11.8485 29.6652C12.5454 29.7943 12.8013 29.3627 12.8013 28.9944C12.8013 28.6622 12.7884 27.5635 12.7824 26.3983C8.903 27.2418 8.08441 24.753 8.08441 24.753C7.4501 23.1415 6.53614 22.7127 6.53614 22.7127C5.27096 21.8472 6.63151 21.865 6.63151 21.865C8.03177 21.9634 8.76907 23.3022 8.76907 23.3022C10.0128 25.4338 12.0312 24.8174 12.8269 24.4611C12.9521 23.5601 13.3135 22.9447 13.7122 22.5965C10.615 22.2441 7.35912 21.0482 7.35912 15.7051C7.35912 14.183 7.90384 12.939 8.79586 11.9623C8.65108 11.611 8.17378 10.1928 8.93094 8.27203C8.93094 8.27203 10.1021 7.89748 12.7666 9.70138C13.879 9.39265 15.0719 9.23771 16.2569 9.23216C17.442 9.23771 18.6358 9.39265 19.7502 9.70138C22.4117 7.89748 23.581 8.27203 23.581 8.27203C24.34 10.1928 23.8627 11.611 23.718 11.9623C24.6121 12.939 25.1529 14.183 25.1529 15.7051C25.1529 21.0612 21.8907 22.2402 18.7856 22.5854C19.2858 23.0182 19.7315 23.8668 19.7315 25.1677C19.7315 27.0335 19.7155 28.5352 19.7155 28.9944C19.7155 29.3657 19.9663 29.8003 20.6731 29.6636C26.2107 27.8177 30.2013 22.5926 30.2013 16.4337C30.2013 8.73201 23.9581 2.48926 16.2569 2.48926Z"/>
</svg>
